<svg width="24" height="24" viewBox="0 0 24 24" fill="none" xmlns="http://www.w3.org/2000/svg">
<path fill-rule="evenodd" clip-rule="evenodd" d="M9 19.1943L17.2215 12.0003L9 4.80626V19.1943ZM9.9885 20.3238L18.2085 13.1298C18.3696 12.989 18.4987 12.8153 18.5872 12.6205C18.6757 12.4257 18.7215 12.2142 18.7215 12.0003C18.7215 11.7863 18.6757 11.5748 18.5872 11.38C18.4987 11.1852 18.3696 11.0116 18.2085 10.8708L9.99 3.67676C9.0165 2.82776 7.5 3.51776 7.5 4.80626V19.1943C7.49975 19.4826 7.58263 19.765 7.73871 20.0074C7.89479 20.2499 8.11746 20.4423 8.38004 20.5614C8.64262 20.6806 8.934 20.7216 9.21927 20.6794C9.50454 20.6373 9.77161 20.5138 9.9885 20.3238Z" fill="black"/>
</svg>
