<svg width="24" height="24" viewBox="0 0 24 24" fill="none" xmlns="http://www.w3.org/2000/svg">
<g clip-path="url(#clip0_5532_719)">
<path fill-rule="evenodd" clip-rule="evenodd" d="M12.0018 4.1211L10.9263 3.0156C8.4018 0.420596 3.7728 1.3161 2.1018 4.5786C1.3173 6.1131 1.1403 8.3286 2.5728 11.1561C3.9528 13.8786 6.8238 17.1396 12.0018 20.6916C17.1798 17.1396 20.0493 13.8786 21.4308 11.1561C22.8633 8.3271 22.6878 6.1131 21.9018 4.5786C20.2308 1.3161 15.6018 0.419096 13.0773 3.0141L12.0018 4.1211ZM12.0018 22.4991C-10.9977 7.3011 4.9203 -4.5609 11.7378 1.7136C11.8278 1.7961 11.9163 1.8816 12.0018 1.9701C12.0864 1.88168 12.1745 1.79661 12.2658 1.7151C19.0818 -4.5639 35.0013 7.2996 12.0018 22.4991Z" fill="black"/>
</g>
<defs>
<clipPath id="clip0_5532_719">
<rect width="24" height="24" fill="white"/>
</clipPath>
</defs>
</svg>
